<svg width="36" height="36" viewBox="0 0 36 36" fill="none" xmlns="http://www.w3.org/2000/svg">
<path d="M26.1 33.0002C19.9759 32.9922 14.105 30.5559 9.7746 26.2256C5.44423 21.8952 3.00794 16.0242 3 9.90017C3 8.07018 3.72696 6.31514 5.02096 5.02113C6.31496 3.72713 8.07001 3.00017 9.9 3.00017C10.2875 2.99722 10.6744 3.03239 11.055 3.10517C11.423 3.15962 11.7847 3.25006 12.135 3.37517C12.3814 3.46162 12.6009 3.61087 12.7719 3.80818C12.9429 4.00549 13.0595 4.24401 13.11 4.50017L15.165 13.5002C15.2204 13.7445 15.2137 13.9987 15.1456 14.2398C15.0775 14.4809 14.9501 14.701 14.775 14.8802C14.58 15.0902 14.565 15.1052 12.72 16.0652C14.1975 19.3065 16.7898 21.9094 20.025 23.4002C21 21.5402 21.015 21.5252 21.225 21.3302C21.4042 21.1551 21.6243 21.0277 21.8654 20.9596C22.1064 20.8915 22.3607 20.8848 22.605 20.9402L31.605 22.9952C31.853 23.0527 32.0822 23.1724 32.2711 23.343C32.4601 23.5135 32.6025 23.7294 32.685 23.9702C32.8116 24.3262 32.907 24.6926 32.97 25.0652C33.0304 25.4422 33.0605 25.8234 33.06 26.2052C33.0323 28.0273 32.2849 29.7646 30.981 31.0376C29.677 32.3107 27.9223 33.0162 26.1 33.0002Z" fill="#231F20" fill-opacity="0.58"/>
</svg>