<svg width="35" height="22" viewBox="0 0 35 22" fill="none" xmlns="http://www.w3.org/2000/svg">
<path d="M34.3369 7.16227C34.6035 6.98716 35 7.15097 35 7.42774V18.9789C35 20.4757 33.5303 21.6901 31.7188 21.6901H3.28125C1.46973 21.6901 0 20.4757 0 18.9789V7.43339C0 7.15097 0.389648 6.99281 0.663086 7.16791C2.19434 8.15075 4.22461 9.39906 11.1973 13.5846C12.6396 14.4544 15.0732 16.2846 17.5 16.2733C19.9404 16.2902 22.4219 14.4206 23.8096 13.5846C30.7822 9.39906 32.8057 8.1451 34.3369 7.16227ZM17.5 14.4601C19.0859 14.4827 21.3691 12.8107 22.5176 12.1216C31.5889 6.68215 32.2793 6.20767 34.3711 4.85204C34.7676 4.59786 35 4.20246 35 3.78448V2.71127C35 1.21442 33.5303 0 31.7188 0H3.28125C1.46973 0 0 1.21442 0 2.71127V3.78448C0 4.20246 0.232422 4.59221 0.628906 4.85204C2.7207 6.20202 3.41113 6.68215 12.4824 12.1216C13.6309 12.8107 15.9141 14.4827 17.5 14.4601Z" fill="black" fill-opacity="0.5"/>
</svg>
