<svg width="36" height="35" viewBox="0 0 36 35" fill="none" xmlns="http://www.w3.org/2000/svg">
<path d="M35.5176 16.4679C34.9134 6.31814 25.548 -1.50418 14.761 0.245783C7.33263 1.45326 1.37931 7.38561 0.224187 14.7004C-0.451116 18.9353 0.437476 22.9427 2.37453 26.2502L0.79288 32.0426C0.437458 33.355 1.66363 34.545 2.97869 34.1775L8.77209 32.6025C11.4022 34.125 14.4766 35 17.7643 35C27.7872 35 36.1041 26.3027 35.5176 16.4679ZM26.4544 24.0102C26.2944 24.3252 26.0989 24.6227 25.8502 24.9027C25.4059 25.3752 24.9261 25.7252 24.3929 25.9352C23.8598 26.1627 23.2733 26.2677 22.6514 26.2677C21.745 26.2677 20.7676 26.0579 19.7547 25.6204C18.7239 25.1829 17.711 24.6052 16.698 23.8877C15.6673 23.1527 14.7077 22.3303 13.7836 21.4378C12.8595 20.5278 12.0419 19.5653 11.2956 18.5678C10.5669 17.5703 9.98053 16.5729 9.55402 15.5754C9.12752 14.5779 8.9143 13.6155 8.9143 12.7055C8.9143 12.1105 9.02091 11.533 9.23416 11.008C9.44741 10.4656 9.7851 9.97559 10.2649 9.5381C10.8336 8.97811 11.4555 8.71561 12.1131 8.71561C12.3619 8.71561 12.6106 8.76809 12.8416 8.87309C13.0727 8.97809 13.286 9.13559 13.4459 9.36308L15.5074 12.233C15.6673 12.4605 15.7917 12.653 15.8628 12.8455C15.9516 13.038 15.9872 13.213 15.9872 13.388C15.9872 13.598 15.9161 13.808 15.7917 14.0179C15.6673 14.2279 15.5074 14.4379 15.2941 14.6479L14.6188 15.3479C14.5122 15.4529 14.4766 15.5579 14.4766 15.6979C14.4766 15.7679 14.4944 15.8379 14.5122 15.9079C14.5477 15.9779 14.5655 16.0304 14.5833 16.0829C14.7432 16.3804 15.0275 16.7479 15.4185 17.2029C15.8272 17.6578 16.2538 18.1303 16.7158 18.5853C17.1956 19.0578 17.6577 19.4778 18.1375 19.8803C18.5995 20.2653 18.9905 20.5278 19.2926 20.6853C19.3459 20.7028 19.3992 20.7378 19.4526 20.7553C19.5236 20.7903 19.5947 20.7903 19.6836 20.7903C19.8435 20.7903 19.9501 20.7378 20.0568 20.6328L20.7321 19.9678C20.9631 19.7403 21.1763 19.5828 21.3718 19.4778C21.5851 19.3553 21.7806 19.2853 22.0116 19.2853C22.1893 19.2853 22.367 19.3203 22.5625 19.4078C22.758 19.4953 22.9712 19.6003 23.1845 19.7578L26.1345 21.8228C26.3655 21.9803 26.5255 22.1728 26.6321 22.3828C26.7209 22.6102 26.7743 22.8202 26.7743 23.0652C26.6676 23.3627 26.5965 23.6952 26.4544 24.0102Z" fill="black" fill-opacity="0.5"/>
</svg>
